# xmcd
#
# Track frame offsets:
#   150
#   19310
#   39463
#   59700
#   64263
#   78675
#   85048
#   101635
#   104643
#   128615
#   136905
#   151828
#   159100
#   173765
#   178750
#   194073
#   213215
#   229020
#   233180
#   243295
#   245280
#
# Disc length: 3451 seconds
#
# Revision: 6
# Processed by: cddbd v1.5PL3 Copyright (c) Steve Scherf et al.
# Submitted via: AudioBrowser/FreeDBQuery 0.90.700
#
DISCID=1a0d7915
DTITLE=Bob Dylan - Folksinger's Choice
DYEAR=1962
DGENRE=Folk
TTITLE0=Lonesome Whistle Blues (Live On Radio) [11 Mar 62]
TTITLE1=Speech: Interview Pt 1
TTITLE2=Fixin' To Die (Live On Radio) [11 Mar 62]
TTITLE3=Speech: Interview Pt 2
TTITLE4=Tell Me Baby (Live On Radio) [11 Mar 62]
TTITLE5=Speech: Interview Pt 3
TTITLE6=Hard Travelin' (Live On Radio) [11 Mar 62]
TTITLE7=Speech: Interview Pt 4
TTITLE8=The Death Of Emmett Till (Live On Radio) [11 Mar 62]
TTITLE9=Speech: Interview Pt 5
TTITLE10=Standing On the Highway (Live On Radio) [11 Mar 62]
TTITLE11=Speech: Interview Pt 6
TTITLE12=Long John (Live On Radio) [11 Mar 62]
TTITLE13=Speech: Interview Pt 7
TTITLE14=Stealin' (Live On Radio) [11 Mar 62]
TTITLE15=Speech: Interview Pt 8
TTITLE16=Long Time Man Feel Bad (Live On Radio) [11 Mar 62]
TTITLE17=Speech: Interview Pt 9
TTITLE18=Baby Please Don't Go (Live On Radio) [11 Mar 62]
TTITLE19=Speech: Interview Pt 10
TTITLE20=Hard Times In New York Town (Live On Radio) [11 Mar 62]
EXTD=
EXTT0=
EXTT1=
EXTT2=
EXTT3=
EXTT4=
EXTT5=
EXTT6=
EXTT7=
EXTT8=
EXTT9=
EXTT10=
EXTT11=
EXTT12=
EXTT13=
EXTT14=
EXTT15=
EXTT16=
EXTT17=
EXTT18=
EXTT19=
EXTT20=
PLAYORDER=
